<svg xmlns="http://www.w3.org/2000/svg" viewBox="0 0 200 200">
  <defs>
    <radialGradient id="ball" cx="40%" cy="36%" r="54%">
      <stop offset="0%" stop-color="#ffffff"/>
      <stop offset="60%" stop-color="#f2f2f2"/>
      <stop offset="85%" stop-color="#dcdcdc"/>
      <stop offset="100%" stop-color="#b8b8b8"/>
    </radialGradient>
  </defs>
  <!-- Ball body -->
  <circle cx="100" cy="100" r="97" fill="url(#ball)"/>
  <circle cx="100" cy="100" r="97" fill="none" stroke="#999" stroke-width="1.5"/>

  <!-- Seam lines (white hex panel edges) -->
  <line x1="100" y1="56" x2="100" y2="12" stroke="#bbb" stroke-width="1.3"/>
  <line x1="122" y1="72" x2="164" y2="46" stroke="#bbb" stroke-width="1.3"/>
  <line x1="114" y1="96" x2="158" y2="120" stroke="#bbb" stroke-width="1.3"/>
  <line x1="86" y1="96" x2="42" y2="120" stroke="#bbb" stroke-width="1.3"/>
  <line x1="78" y1="72" x2="36" y2="46" stroke="#bbb" stroke-width="1.3"/>

  <!-- Outer connecting seams -->
  <line x1="114" y1="30" x2="144" y2="36" stroke="#bbb" stroke-width="1.2"/>
  <line x1="86" y1="30" x2="56" y2="36" stroke="#bbb" stroke-width="1.2"/>
  <line x1="164" y1="64" x2="162" y2="100" stroke="#bbb" stroke-width="1.2" opacity="0.7"/>
  <line x1="36" y1="64" x2="38" y2="100" stroke="#bbb" stroke-width="1.2" opacity="0.7"/>
  <line x1="148" y1="138" x2="128" y2="154" stroke="#bbb" stroke-width="1.2"/>
  <line x1="52" y1="138" x2="72" y2="154" stroke="#bbb" stroke-width="1.2"/>
  <line x1="118" y1="172" x2="124" y2="190" stroke="#bbb" stroke-width="1.1" opacity="0.5"/>
  <line x1="82" y1="172" x2="76" y2="190" stroke="#bbb" stroke-width="1.1" opacity="0.5"/>

  <!-- Centre pentagon -->
  <polygon points="100,56 122,72 114,96 86,96 78,72" fill="#1a1a1a" stroke="#111" stroke-width="0.5"/>
  <!-- Top pentagon -->
  <polygon points="100,12 114,30 100,40 86,30" fill="#1a1a1a" stroke="#111" stroke-width="0.5"/>
  <!-- Top-right pentagon -->
  <polygon points="164,46 158,66 140,70 130,54 144,36" fill="#1a1a1a" stroke="#111" stroke-width="0.5"/>
  <!-- Bottom-right pentagon -->
  <polygon points="158,120 148,138 128,132 122,114 138,102" fill="#1a1a1a" stroke="#111" stroke-width="0.5"/>
  <!-- Bottom-left pentagon -->
  <polygon points="42,120 62,102 78,114 72,132 52,138" fill="#1a1a1a" stroke="#111" stroke-width="0.5"/>
  <!-- Top-left pentagon -->
  <polygon points="36,46 56,36 70,54 60,70 42,66" fill="#1a1a1a" stroke="#111" stroke-width="0.5"/>
  <!-- Bottom pentagon -->
  <polygon points="72,154 86,138 114,138 128,154 118,172 82,172" fill="#1a1a1a" stroke="#111" stroke-width="0.5"/>

  <!-- Subtle highlight arc -->
  <ellipse cx="78" cy="68" rx="22" ry="10" fill="white" opacity="0.08" transform="rotate(-30 78 68)"/>
</svg>
